<?xml version="1.0" encoding="UTF-8"?>
<svg id="Layer_2" data-name="Layer 2" xmlns="http://www.w3.org/2000/svg" viewBox="0 0 3928 1334.46">
  <defs>
    <style>
      .cls-1 {
        fill: #231f20;
      }

      .cls-2 {
        fill: #fbfcfc;
      }
    </style>
  </defs>
  <g id="Layer_1-2" data-name="Layer 1">
    <g>
      <g>
        <path class="cls-1" d="M1226.32,851.46c-19.25,0-35.78-4.28-49.59-12.84-13.81-8.56-25.08-20.34-33.8-35.32-8.72-14.99-15.11-32.19-19.19-51.61-4.08-19.42-6.11-39.84-6.11-61.25v-167.44h66.23v167.37c0,10.7.79,20.95,2.38,30.72,1.58,9.78,4.08,18.5,7.47,26.14,3.4,7.64,7.75,13.68,13.08,18.12,5.32,4.44,11.83,6.65,19.53,6.65s14.61-2.21,20.04-6.65c5.43-4.44,9.79-10.55,13.08-18.35,3.28-7.8,5.72-16.58,7.3-26.36,1.58-9.78,2.38-19.87,2.38-30.26v-167.37h66.23v167.44c0,22.64-2.21,43.74-6.62,63.31-4.42,19.57-11.04,36.7-19.87,51.38-8.83,14.69-20.1,26.08-33.8,34.18-13.7,8.1-29.95,12.15-48.74,12.15Z"/>
        <path class="cls-1" d="M1436.57,688.84v160.33h-66.23v-326.17h51.63l96.8,165.84v-165.84h66.23v326.17h-52.65l-95.78-160.33Z"/>
        <path class="cls-1" d="M1623.38,849.16v-326.17h66.23v326.17h-66.23Z"/>
        <path class="cls-1" d="M1714.74,682.86c0-19.9,2.77-39.43,8.32-58.57,5.55-19.14,13.64-36.52,24.29-52.14,10.64-15.62,23.61-28.09,38.89-37.44,15.28-9.34,32.55-14.01,51.8-14.01,23.1,0,43.25,6.51,60.46,19.52,17.21,13.02,30,30.25,38.38,51.68l-50.61,48.7c-2.95-10.72-7.19-18.99-12.74-24.81-5.55-5.81-11.55-9.88-18-12.17-6.45-2.3-12.74-3.45-18.85-3.45-9.51,0-17.72,2.53-24.62,7.58-6.91,5.05-12.57,11.71-16.98,19.98-4.42,8.27-7.7,17.46-9.85,27.56-2.16,10.11-3.23,20.21-3.23,30.32,0,11.33,1.24,22.21,3.74,32.62,2.49,10.42,6.11,19.68,10.87,27.79,4.76,8.12,10.58,14.47,17.49,19.07,6.9,4.59,14.66,6.89,23.27,6.89,6.11,0,12.34-1.3,18.68-3.9,6.34-2.6,12.11-6.81,17.32-12.63,5.21-5.81,9.17-13.62,11.89-23.43l54.01,43.64c-4.76,15.93-12.68,29.56-23.78,40.89-11.1,11.33-23.66,19.98-37.7,25.96-14.04,5.97-27.97,8.96-41.78,8.96-17.89,0-34.25-4.82-49.08-14.47-14.83-9.65-27.63-22.51-38.38-38.59-10.76-16.08-19.08-34.15-24.96-54.21-5.89-20.05-8.83-40.5-8.83-61.33Z"/>
        <path class="cls-1" d="M2064.59,851.46c-18.34,0-34.98-4.67-49.93-14.01-14.94-9.34-27.8-21.89-38.55-37.67-10.76-15.77-19.02-33.54-24.8-53.29-5.77-19.75-8.66-40.2-8.66-61.33s3.06-42.41,9.17-62.02c6.11-19.6,14.66-37.13,25.64-52.6,10.98-15.46,24-27.64,39.06-36.52,15.06-8.88,31.53-13.32,49.42-13.32s34.98,4.67,49.93,14.01c14.94,9.35,27.74,21.98,38.38,37.9,10.64,15.93,18.85,33.77,24.62,53.52,5.77,19.75,8.66,40.05,8.66,60.87s-3,41.96-9,61.56c-6,19.6-14.49,37.14-25.47,52.6-10.99,15.47-23.95,27.72-38.89,36.75-14.94,9.04-31.48,13.55-49.59,13.55ZM2009.91,686.08c0,11.03,1.13,21.67,3.4,31.93,2.26,10.26,5.66,19.45,10.19,27.56,4.53,8.12,10.24,14.55,17.15,19.29,6.9,4.75,15.11,7.12,24.62,7.12s17.77-2.45,24.8-7.35c7.02-4.9,12.74-11.56,17.15-19.98,4.42-8.42,7.7-17.76,9.85-28.02,2.15-10.26,3.23-20.74,3.23-31.47s-1.14-21.59-3.4-31.7c-2.27-10.11-5.66-19.22-10.19-27.33-4.53-8.11-10.31-14.47-17.32-19.06-7.02-4.59-15.17-6.89-24.46-6.89s-17.72,2.45-24.63,7.35c-6.91,4.9-12.63,11.41-17.15,19.52-4.53,8.12-7.87,17.31-10.02,27.56-2.16,10.26-3.23,20.75-3.23,31.47Z"/>
        <path class="cls-1" d="M2212.69,849.16v-326.17h110.73c11.77,0,22.64,3.22,32.61,9.65,9.96,6.43,18.56,15.09,25.81,25.96,7.24,10.87,12.85,23.05,16.81,36.52,3.96,13.48,5.94,27.1,5.94,40.89,0,12.56-1.36,24.66-4.08,36.29-2.72,11.64-6.68,22.28-11.89,31.93-5.21,9.65-11.44,18-18.68,25.04l50.95,119.9h-72.69l-42.46-100.15h-26.83v100.15h-66.23ZM2278.92,670.92h41.78c2.72,0,5.32-1.38,7.81-4.13,2.49-2.76,4.59-6.73,6.28-11.94,1.7-5.2,2.55-11.49,2.55-18.84s-.97-14.01-2.89-19.06c-1.93-5.05-4.3-8.96-7.13-11.71-2.83-2.76-5.6-4.13-8.32-4.13h-40.08v69.83Z"/>
        <path class="cls-1" d="M2505.13,688.84v160.33h-66.23v-326.17h51.63l96.8,165.84v-165.84h66.23v326.17h-52.65l-95.78-160.33Z"/>
        <path class="cls-1" d="M2978.61,523v326.17h-66.23v-127.71h-80.84v127.71h-66.23v-326.17h66.23v120.36h80.84v-120.36h66.23Z"/>
        <path class="cls-1" d="M3188.85,771.07v78.1h-171.87v-326.17h168.81v78.1h-102.58v45.94h87.63v72.58h-87.63v51.45h105.63Z"/>
        <path class="cls-1" d="M3272.4,523h74.05l76.76,326.17h-67.25l-12.47-63.86h-68.13l-12.47,63.86h-67.59l77.1-326.17ZM3331.84,725.59l-22.41-114.85-22.41,114.85h44.82Z"/>
        <path class="cls-1" d="M3440.19,849.16v-326.17h110.73c11.77,0,22.64,3.22,32.61,9.65,9.96,6.43,18.56,15.09,25.81,25.96,7.24,10.87,12.85,23.05,16.81,36.52,3.96,13.48,5.94,27.1,5.94,40.89,0,12.56-1.36,24.66-4.08,36.29-2.72,11.64-6.68,22.28-11.89,31.93-5.21,9.65-11.44,18-18.68,25.04l50.95,119.9h-72.69l-42.46-100.15h-26.83v100.15h-66.23ZM3506.43,670.92h41.78c2.72,0,5.32-1.38,7.81-4.13,2.49-2.76,4.59-6.73,6.28-11.94,1.7-5.2,2.55-11.49,2.55-18.84s-.97-14.01-2.89-19.06c-1.93-5.05-4.3-8.96-7.13-11.71-2.83-2.76-5.6-4.13-8.32-4.13h-40.08v69.83Z"/>
        <path class="cls-1" d="M3850.84,601.09h-69.29v248.07h-66.23v-248.07h-69.63v-78.1h205.15v78.1Z"/>
      </g>
      <g>
        <path class="cls-1" d="M1332.96,871.15c16.17,0,28.89,3.46,38.16,10.39,9.26,6.92,13.89,17.54,13.89,31.85,0,9.08-1.98,16.89-5.95,23.43-3.97,6.54-9.52,11.66-16.65,15.35-7.13,3.69-15.48,5.77-25.03,6.23l-3.31-12.93c11.17.31,21.17,2.35,30,6.12,8.82,3.77,15.84,9,21.06,15.69,5.22,6.69,7.83,14.66,7.83,23.89,0,8.46-1.51,15.69-4.52,21.7-3.02,6-7.06,10.89-12.13,14.66-5.07,3.77-10.81,6.54-17.2,8.31-6.4,1.77-13.05,2.65-19.96,2.65h-48.3v-167.34h42.13ZM1337.15,943.62c8.38,0,14.48-2.5,18.31-7.5,3.82-5,5.73-10.88,5.73-17.66,0-8.31-2.46-14.39-7.39-18.23-4.93-3.84-11.51-5.77-19.74-5.77h-20.29v49.16h23.38ZM1338.03,1016.1c8.67,0,16.02-2,22.06-6,6.03-4,9.04-10.23,9.04-18.7,0-6.15-1.62-11-4.85-14.54-3.24-3.54-7.35-6.08-12.35-7.62-5-1.54-10.15-2.31-15.44-2.31h-22.72v49.16h24.26Z"/>
        <path class="cls-1" d="M1471.25,942.01l2.21,27.7-.88-3.69c2.5-5.85,5.99-10.85,10.48-15,4.48-4.15,9.19-7.35,14.12-9.58,4.92-2.23,9.08-3.35,12.46-3.35l-1.1,23.08c-6.91-.46-12.98.92-18.2,4.15-5.22,3.23-9.3,7.54-12.24,12.93-2.94,5.39-4.41,11.16-4.41,17.31v42.93h-22.28v-96.48h19.85Z"/>
        <path class="cls-1" d="M1599.84,1040.79c-8.68,0-16.54-1.93-23.6-5.77-7.06-3.84-12.65-9.5-16.76-16.96-4.12-7.46-6.18-16.73-6.18-27.81s2.17-20.04,6.51-27.81c4.34-7.77,10.07-13.77,17.2-18,7.13-4.23,14.89-6.35,23.27-6.35,8.82,0,16.1,1.93,21.84,5.77,5.73,3.85,10.15,8.46,13.23,13.85l-1.32,3.69,2.21-19.39h20.51v96.48h-22.28v-24.47l2.21,5.77c-.59,1.23-1.84,3-3.75,5.31-1.91,2.31-4.41,4.66-7.5,7.04-3.09,2.39-6.8,4.43-11.14,6.12-4.34,1.69-9.15,2.54-14.45,2.54ZM1605.79,1021.64c7.35,0,13.56-2.04,18.64-6.12,5.07-4.08,8.42-9.65,10.04-16.73v-19.85c-1.76-6.31-5.33-11.54-10.7-15.69-5.37-4.15-11.58-6.23-18.64-6.23-5.29,0-10.15,1.35-14.56,4.04-4.41,2.69-7.94,6.46-10.59,11.31-2.65,4.85-3.97,10.43-3.97,16.73s1.36,11.7,4.08,16.62c2.72,4.93,6.36,8.81,10.92,11.66,4.56,2.85,9.48,4.27,14.78,4.27Z"/>
        <path class="cls-1" d="M1739.89,942.01l1.98,22.39-.88-3.23c2.94-6.92,7.68-12.46,14.23-16.62,6.54-4.15,14.23-6.23,23.05-6.23s15.8,2.65,21.39,7.96c5.59,5.31,8.45,12.27,8.6,20.89v71.32h-22.28v-63.24c-.15-4.92-1.54-8.96-4.19-12.12-2.65-3.15-6.77-4.81-12.35-4.96-7.8,0-14.3,3.39-19.52,10.16-5.22,6.77-7.83,15.46-7.83,26.08v44.08h-22.28v-96.48h20.07Z"/>
        <path class="cls-1" d="M1909.06,1040.79c-8.68,0-16.47-2.12-23.38-6.35-6.91-4.23-12.35-10.27-16.32-18.12-3.97-7.85-5.95-17-5.95-27.47s2.13-19.93,6.4-27.47c4.26-7.54,10.04-13.31,17.31-17.31,7.28-4,15.47-6,24.59-6,7.06,0,13.78,1.5,20.18,4.5,6.4,3,11.43,7.19,15.11,12.58l-.88,8.08v-104.09h22.28v179.34h-22.5v-23.08l2.43,6.23c-4.41,5.54-9.96,10.12-16.65,13.73-6.69,3.61-14.23,5.42-22.61,5.42ZM1915.89,1021.17c7.79,0,14.3-2.11,19.52-6.35,5.22-4.23,8.71-9.89,10.48-16.96v-19.16c-1.62-6.46-5.18-11.77-10.7-15.93-5.51-4.15-11.95-6.23-19.3-6.23-5.29,0-10.22,1.35-14.78,4.04-4.56,2.69-8.2,6.46-10.92,11.31-2.72,4.85-4.08,10.43-4.08,16.73s1.36,11.46,4.08,16.39c2.72,4.93,6.36,8.85,10.92,11.77,4.56,2.92,9.48,4.39,14.78,4.39Z"/>
      </g>
      <g>
        <path class="cls-1" d="M2092.11,1040.79v-172.88h.22l84.69,125.79-9.93-2.08,84.47-123.71h.44v172.88h-22.94v-118.17l1.32,12.23-59.11,87.94h-.44l-60.43-87.94,3.97-11.31v117.25h-22.28Z"/>
        <path class="cls-1" d="M2373.76,1043.1c-8.68,0-16.54-1.93-23.6-5.77-7.06-3.84-12.65-9.5-16.76-16.96-4.12-7.46-6.18-16.73-6.18-27.81s2.17-20.04,6.51-27.81c4.34-7.77,10.07-13.77,17.2-18,7.13-4.23,14.89-6.35,23.27-6.35,8.82,0,16.1,1.93,21.84,5.77,5.73,3.85,10.15,8.46,13.23,13.85l-1.32,3.69,2.21-19.39h20.51v96.48h-22.28v-24.47l2.21,5.77c-.59,1.23-1.84,3-3.75,5.31-1.91,2.31-4.41,4.66-7.5,7.04-3.09,2.39-6.8,4.43-11.14,6.12-4.34,1.69-9.15,2.54-14.45,2.54ZM2379.72,1023.94c7.35,0,13.56-2.04,18.64-6.12,5.07-4.08,8.42-9.65,10.04-16.73v-19.85c-1.76-6.31-5.33-11.54-10.7-15.69-5.37-4.15-11.58-6.23-18.64-6.23-5.29,0-10.15,1.35-14.56,4.04-4.41,2.69-7.94,6.46-10.59,11.31-2.65,4.85-3.97,10.43-3.97,16.73s1.36,11.7,4.08,16.62c2.72,4.93,6.36,8.81,10.92,11.66,4.56,2.85,9.48,4.27,14.78,4.27Z"/>
        <path class="cls-1" d="M2528.59,944.32l1.98,22.39-.88-3.23c2.94-6.92,7.68-12.46,14.23-16.62,6.54-4.15,14.23-6.23,23.05-6.23s15.8,2.65,21.39,7.96c5.59,5.31,8.45,12.27,8.6,20.89v71.32h-22.28v-63.24c-.15-4.92-1.54-8.96-4.19-12.12-2.65-3.15-6.77-4.81-12.35-4.96-7.8,0-14.3,3.39-19.52,10.16-5.22,6.77-7.83,15.46-7.83,26.08v44.08h-22.28v-96.48h20.07Z"/>
        <path class="cls-1" d="M2713.42,1043.1c-8.68,0-16.54-1.93-23.6-5.77-7.06-3.84-12.65-9.5-16.76-16.96-4.12-7.46-6.18-16.73-6.18-27.81s2.17-20.04,6.51-27.81c4.34-7.77,10.07-13.77,17.2-18,7.13-4.23,14.89-6.35,23.27-6.35,8.82,0,16.1,1.93,21.84,5.77,5.73,3.85,10.15,8.46,13.23,13.85l-1.32,3.69,2.21-19.39h20.51v96.48h-22.28v-24.47l2.21,5.77c-.59,1.23-1.84,3-3.75,5.31-1.91,2.31-4.41,4.66-7.5,7.04-3.09,2.39-6.8,4.43-11.14,6.12-4.34,1.69-9.15,2.54-14.45,2.54ZM2719.37,1023.94c7.35,0,13.56-2.04,18.64-6.12,5.07-4.08,8.42-9.65,10.04-16.73v-19.85c-1.76-6.31-5.33-11.54-10.7-15.69-5.37-4.15-11.58-6.23-18.64-6.23-5.29,0-10.15,1.35-14.56,4.04-4.41,2.69-7.94,6.46-10.59,11.31-2.65,4.85-3.97,10.43-3.97,16.73s1.36,11.7,4.08,16.62c2.72,4.93,6.36,8.81,10.92,11.66,4.56,2.85,9.48,4.27,14.78,4.27Z"/>
        <path class="cls-1" d="M2893.17,1088.8c-7.06,0-13.23-.89-18.53-2.65-5.29-1.77-10.04-4.12-14.23-7.04-4.19-2.92-8.2-6.16-12.02-9.69l13.23-15.93c4.56,4.62,9.3,8.23,14.23,10.85,4.92,2.61,10.55,3.92,16.87,3.92,10,0,17.72-2.46,23.16-7.39,5.44-4.93,8.23-11.54,8.38-19.85v-25.16l1.54,4.39c-2.65,6.46-7.32,11.89-14.01,16.27-6.69,4.39-14.96,6.58-24.81,6.58-8.53,0-16.32-2.23-23.38-6.69-7.06-4.46-12.72-10.54-16.98-18.23-4.27-7.69-6.4-16.39-6.4-26.08s2.24-18.89,6.73-26.66c4.48-7.77,10.4-13.88,17.76-18.35,7.35-4.46,15.22-6.69,23.6-6.69s15.62,1.62,22.17,4.85c6.54,3.23,11.36,7.39,14.45,12.46l-1.1,3.92,2.21-17.31h20.51v97.17c0,8.77-2.21,16.73-6.62,23.89-4.41,7.16-10.59,12.85-18.53,17.08-7.94,4.23-17.35,6.35-28.23,6.35ZM2862.73,991.4c0,6.16,1.36,11.7,4.08,16.62,2.72,4.93,6.4,8.81,11.03,11.66,4.63,2.85,9.82,4.27,15.55,4.27,7.79,0,14.41-2.11,19.85-6.35,5.44-4.23,9.12-9.65,11.03-16.27v-19.85c-1.91-6.61-5.66-11.96-11.25-16.04-5.59-4.08-12.13-6.12-19.63-6.12-5.73,0-10.92,1.38-15.55,4.15-4.63,2.77-8.31,6.54-11.03,11.31-2.72,4.77-4.08,10.31-4.08,16.62Z"/>
        <path class="cls-1" d="M3067.63,1043.1c-10.59,0-19.71-2.19-27.35-6.58-7.65-4.39-13.53-10.46-17.64-18.23-4.12-7.77-6.18-16.58-6.18-26.43s2.32-18.19,6.95-25.97c4.63-7.77,10.84-13.96,18.64-18.58,7.79-4.62,16.47-6.92,26.03-6.92,12.35,0,22.61,3.73,30.77,11.19,8.16,7.47,13.64,17.97,16.43,31.51l-75.21,27.24-5.29-13.39,60.43-23.08-4.63,3.23c-1.76-4.92-4.56-9.19-8.38-12.81-3.83-3.61-9.04-5.42-15.66-5.42-8.24,0-14.96,2.96-20.18,8.89-5.22,5.93-7.83,13.5-7.83,22.73,0,9.85,2.79,17.77,8.38,23.77,5.59,6,12.64,9,21.17,9,3.97,0,7.79-.73,11.47-2.19,3.67-1.46,7.13-3.42,10.37-5.89l10.15,17.31c-4.71,3.23-9.89,5.81-15.55,7.73-5.66,1.92-11.29,2.88-16.87,2.88Z"/>
        <path class="cls-1" d="M3203.27,944.32l1.98,21-1.1-1.85c3.38-7.23,8.2-12.89,14.45-16.96,6.25-4.08,13.42-6.12,21.5-6.12,7.64,0,14.04,1.85,19.19,5.54,5.15,3.69,8.31,8.93,9.48,15.69l-1.1.92c3.67-6.92,8.6-12.35,14.78-16.27,6.18-3.92,12.64-5.89,19.41-5.89,9.12,0,16.32,2.65,21.61,7.96,5.29,5.31,8.01,12.27,8.16,20.89v71.55h-22.06v-62.78c-.15-4.92-1.21-9-3.2-12.23-1.98-3.23-5.55-5-10.7-5.31-5.29,0-9.96,1.69-14.01,5.08-4.05,3.39-7.21,7.77-9.48,13.16-2.28,5.39-3.49,11.16-3.64,17.31v44.78h-22.28v-62.78c-.15-4.92-1.29-9-3.42-12.23-2.13-3.23-5.77-5-10.92-5.31-5.15,0-9.74,1.69-13.78,5.08-4.05,3.39-7.17,7.81-9.37,13.27-2.21,5.46-3.31,11.27-3.31,17.43v44.55h-22.28v-96.48h20.07Z"/>
        <path class="cls-1" d="M3452.72,1043.1c-10.59,0-19.71-2.19-27.35-6.58-7.65-4.39-13.53-10.46-17.64-18.23-4.12-7.77-6.18-16.58-6.18-26.43s2.32-18.19,6.95-25.97c4.63-7.77,10.84-13.96,18.64-18.58,7.79-4.62,16.47-6.92,26.03-6.92,12.35,0,22.61,3.73,30.77,11.19,8.16,7.47,13.64,17.97,16.43,31.51l-75.21,27.24-5.29-13.39,60.43-23.08-4.63,3.23c-1.76-4.92-4.56-9.19-8.38-12.81-3.83-3.61-9.04-5.42-15.66-5.42-8.24,0-14.96,2.96-20.18,8.89-5.22,5.93-7.83,13.5-7.83,22.73,0,9.85,2.79,17.77,8.38,23.77,5.59,6,12.64,9,21.17,9,3.97,0,7.79-.73,11.47-2.19,3.67-1.46,7.13-3.42,10.37-5.89l10.15,17.31c-4.71,3.23-9.89,5.81-15.55,7.73-5.66,1.92-11.29,2.88-16.87,2.88Z"/>
        <path class="cls-1" d="M3588.37,944.32l1.98,22.39-.88-3.23c2.94-6.92,7.68-12.46,14.23-16.62,6.54-4.15,14.23-6.23,23.05-6.23s15.8,2.65,21.39,7.96c5.59,5.31,8.45,12.27,8.6,20.89v71.32h-22.28v-63.24c-.15-4.92-1.54-8.96-4.19-12.12-2.65-3.15-6.77-4.81-12.35-4.96-7.8,0-14.3,3.39-19.52,10.16-5.22,6.77-7.83,15.46-7.83,26.08v44.08h-22.28v-96.48h20.07Z"/>
        <path class="cls-1" d="M3743.42,902.08h22.5v42.47h24.7v18.23h-24.7v78.01h-22.5v-78.01h-16.32v-18.23h16.32v-42.47Z"/>
      </g>
      <g>
        <path d="M690.33,25.37c-8.11-.22,2.76-22.28,4.36-25.37,1.19,2.29-3.08,25.4-4.36,25.37Z"/>
        <path d="M685.11,49.4c-11.4-4.7-6.74-15.15-1.81-23.28,8.19,5.99,3.02,15.58,1.81,23.28Z"/>
        <path d="M678.94,77.81c-9.72-10.72-15.29-18.53-4.76-30.78,11.71,9.78,7.75,18.2,4.76,30.78Z"/>
        <path d="M671.44,107.07c-13.57-13.44-19.12-20.92-7.7-38.28,12.9,12.15,15.84,21.94,7.7,38.28Z"/>
        <path d="M663.47,138.52c-15.21-13.59-26.73-26.37-9.79-44.46,13.86,15.22,19.51,24.81,9.79,44.46Z"/>
        <path d="M653.69,173.01c-19.22-17.84-29.56-28.99-13.6-53.29,14.76,19.64,29.13,28.23,13.6,53.29Z"/>
        <path d="M652.03,180.66c.5,1.43-5.64,29.27-8.59,29.03-20.01-18.26-36.88-34.22-15.69-59.47,1.07,9.78,22.27,24.74,24.28,30.44Z"/>
        <path d="M391.95,340.41c7.04,11.44,13.89,23.35,23.8,32.63l18.8-76.01c8.04-6.17,41.93,41.05,45.47,48.77,3.24,7.07,7.74,43.02,2.05,48.5-2.27,2.19-31.8,4.7-17.62,17.91,1.72,1.6,35.45,5.6,45.89,9.97,33.3,13.93,77.92,52.57,112.92,54.27,38.61,1.88,71.17-29.32,112.34-16.79,63.79,19.42,66.32,108.46-1.12,121.03,56.08-36.6-.06-121.05-58.16-90.43,21.38-1.81,45.58,4.44,59.29,22.03,26.68,34.23,5.09,75.18-32.67,39.81,35.56,8.4,44.65-16.02,11.96-34.01-14.06-7.74-63.52-13.08-78.14-8.96-2.68.76-4.14-.04-4.23,3.66,64.4,72.78,157.79,107.55,239.53,156.14,13.22,10.66,29.07,95.33,23.91,105.88-1.4,2.87-23.81,25.19-26.31,26.32-9.35,4.24-44.88-14-55.87-16.71l43.66,25.5c-13.45,22.53-53.42,30.49-76.19,18.92-12.91-6.56-22.01-20.99-32.88-27.73-13.51-8.39-38.37-1.11-54.58-1.56-8.51-.24-54.79-5.71-57.38-4.45-2.35,1.13-16.01,15.58-24.89,19.77-37.89,17.88-102.28-2-135.81-22.63-10.31-6.34-25.65-29.77-28.41-6.17-13.35,114.24,209.24,206.3,282.4,269.56,57.17,49.43,100.15,114.01,139.83,177.96-33.24-37.12-68.68-72.98-109.51-101.58-169.22-118.52-426.84-87.39-543.57-283.95-91.47-154.02-1.9-344.88,161.19-399.76-8.99-20.46-15.01-40.19-14.98-62.75.01-10.27,7.38-56.63,16.57-60.47,9.5-3.97,10.48,11.75,12.69,15.34ZM546.75,581.11c39.96,15.77,60.41-24.16,100.7-15.89-39.23-32.17-66.74,29.11-110.44,8.05-2.75,2.84,8.6,7.39,9.74,7.84ZM846.76,690.94c3.59-4.96,9.55-1.15,6.73.27-10.79,5.39-10.74,5.27-6.73-.27Z"/>
        <path d="M642.63,218.66c.6,1.69-6.93,28.68-8.59,29.03-22.59-16.88-44.47-38.68-21.29-65.26,2.71,9.94,27.87,30.54,29.89,36.24Z"/>
        <path d="M366.6,441.31c-318.39,61.48-434.81,441.39-154.82,639.12,90.25,63.73,204.73,89.36,311.11,111.04,133.05,27.12,286.23,33.89,388.11,135.77-160.37-71-340.21-53.85-507.76-101.12C210.16,1171.64,15.93,1037.9.73,819.49c-9.69-139.26,78.7-286.66,201.19-352.17,49.31-26.38,109.95-36.04,164.68-26.02Z"/>
        <path d="M632.38,255.33c.68,1.6-7.63,32.87-9.54,33.4-28.32-19.7-49.28-39.83-26.43-73.24,1.92,11.78,33.87,34.94,35.97,39.85Z"/>
        <path d="M621.18,296.38c.77,1.68-8.3,34.89-10.02,35.58-29.21-17.58-60.11-46.31-29.85-78.56.13,14.08,37.66,38.18,39.86,42.98Z"/>
        <path d="M608.65,338.28l-10.49,37.77c-32.07-20.25-64.01-46.26-35.45-84.36,12.52,18.15,25.65,36.52,45.94,46.59Z"/>
        <path d="M339.38,455.99c-193.27,90.96-280.03,319.33-146.16,499.13,126.01,169.22,369.12,155.47,543.37,242.72,45.73,22.9,92.71,53.14,129.46,88.75-198.42-123.8-468.01-78.16-657.04-225.07C2.92,901.34,28.18,622.61,250.18,492.68c26.51-15.51,59.5-29.2,89.2-36.69Z"/>
        <path d="M224.17,554.53c-96.5,129.17-59.58,294.52,63.49,392.49,123.49,98.31,280.64,94.92,413.96,164.27,94.31,49.05,175.26,126.3,221.54,223.16-62.3-75.1-140.47-131.19-229.89-168.92-151.26-63.82-342.66-62.46-463.56-188.77-133.92-139.91-112.62-346.6,32.92-467.66-11.48,16.25-26.49,29.38-38.47,45.42Z"/>
        <path d="M567.04,361.27c4.47,4.66,28.74,20.61,29.46,22.41,1.5,3.77-9.39,31.84-10.49,37.77-18.43-7.57-48.88-33.31-55.06-52-2.6-7.86,10.93-29.9,14.01-38.15,7.32,9.97,13.45,20.95,22.09,29.97Z"/>
        <path d="M545.77,401.27c15.46,16.27,45.29,21.2,33.69,45.07-9.57-8.94-61.42-29.96-66.27-37.28-4.12-6.21,10.82-27.3,12.2-35.11,7.67,8.24,12.5,19.01,20.38,27.31Z"/>
        <path d="M973.46,344.28c177.4,183.72,114.13,424.26,34.95,634.56-36.06,95.77-80.03,188.87-120.88,282.66-6.71-.59-7.45-28.44-8.65-33.91,86.55-257.89,304.62-622.54,71.03-864.4-81.98-84.88-227.9-101.9-327.24-36.75l18.81-23.37c9.1-5.21,17.42-12.08,26.6-17.11,94.52-51.73,232.89-16.77,305.4,58.32Z"/>
        <path d="M745.57,440.09c12.81,9.21,22.8,23.24,30.98,36.47-14.78-15.66-33.52-27.33-55.44-29.2-45.22-3.87-87.35,38.92-129.96,8.39,59.2,28.29,100.32-54.57,154.42-15.66Z"/>
        <path class="cls-2" d="M647.45,565.23c-40.29-8.27-60.74,31.66-100.7,15.89-1.14-.45-12.49-5-9.74-7.84,43.7,21.06,71.21-40.22,110.44-8.05Z"/>
      </g>
      <rect class="cls-1" x="943.87" y="1100.33" width="2984.13" height="37.38"/>
      <rect class="cls-1" x="999.94" y="392.2" width="2928.06" height="37.38"/>
      <rect class="cls-1" x="3890.62" y="392.2" width="37.38" height="743.44"/>
    </g>
  </g>
</svg>